<?xml version="1.0" encoding="UTF-8" standalone="no"?>
<!DOCTYPE svg PUBLIC "-//W3C//DTD SVG 1.1//EN"
 "http://www.w3.org/Graphics/SVG/1.1/DTD/svg11.dtd">
<!-- Generated by graphviz version 2.40.1 (20161225.0304)
 -->
<!-- Title: %0 Pages: 1 -->
<svg width="385pt" height="288pt"
 viewBox="0.00 0.00 384.96 288.00" xmlns="http://www.w3.org/2000/svg" xmlns:xlink="http://www.w3.org/1999/xlink">
<g id="graph0" class="graph" transform="scale(1 1) rotate(0) translate(4 284)">
<title>%0</title>
<g id="a_graph0"><a xlink:title="Data Model">
<polygon fill="#ffffff" stroke="transparent" points="-4,4 -4,-284 380.9621,-284 380.9621,4 -4,4"/>
</a>
</g>
<!-- INFCcatalog -->
<g id="node1" class="node">
<title>INFCcatalog</title>
<polygon fill="#efebdd" stroke="transparent" points="147.9621,-259 147.9621,-279 223.9621,-279 223.9621,-259 147.9621,-259"/>
<text text-anchor="start" x="149.8064" y="-264.4" font-family="Times,serif" font-size="14.00" fill="#000000">INFCcatalog</text>
<polygon fill="#ffffff" stroke="transparent" points="147.9621,-239 147.9621,-259 196.9621,-259 196.9621,-239 147.9621,-239"/>
<text text-anchor="start" x="149.9621" y="-245.4" font-family="Times,serif" text-decoration="underline" font-size="14.00" fill="#444444">pag</text>
<polygon fill="#ffffff" stroke="transparent" points="196.9621,-239 196.9621,-259 223.9621,-259 223.9621,-239 196.9621,-239"/>
<text text-anchor="start" x="198.9621" y="-244.4" font-family="Times,serif" font-size="14.00" fill="#444444">int</text>
<polygon fill="#ffffff" stroke="transparent" points="147.9621,-219 147.9621,-239 196.9621,-239 196.9621,-219 147.9621,-219"/>
<text text-anchor="start" x="149.9621" y="-224.4" font-family="Times,serif" font-size="14.00" fill="#444444">n_oss</text>
<polygon fill="#ffffff" stroke="transparent" points="196.9621,-219 196.9621,-239 223.9621,-239 223.9621,-219 196.9621,-219"/>
<text text-anchor="start" x="198.9621" y="-224.4" font-family="Times,serif" font-size="14.00" fill="#444444">int</text>
<polygon fill="#ffffff" stroke="transparent" points="147.9621,-199 147.9621,-219 196.9621,-219 196.9621,-199 147.9621,-199"/>
<text text-anchor="start" x="149.9621" y="-204.4" font-family="Times,serif" font-size="14.00" fill="#444444">n_par</text>
<polygon fill="#ffffff" stroke="transparent" points="196.9621,-199 196.9621,-219 223.9621,-219 223.9621,-199 196.9621,-199"/>
<text text-anchor="start" x="198.9621" y="-204.4" font-family="Times,serif" font-size="14.00" fill="#444444">int</text>
<polygon fill="#ffffff" stroke="transparent" points="147.9621,-179 147.9621,-199 196.9621,-199 196.9621,-179 147.9621,-179"/>
<text text-anchor="start" x="149.9621" y="-184.4" font-family="Times,serif" font-size="14.00" fill="#444444">section</text>
<polygon fill="#ffffff" stroke="transparent" points="196.9621,-179 196.9621,-199 223.9621,-199 223.9621,-179 196.9621,-179"/>
<text text-anchor="start" x="198.9621" y="-184.4" font-family="Times,serif" font-size="14.00" fill="#444444">chr</text>
<polygon fill="none" stroke="#555555" points="146.9621,-178 146.9621,-280 224.9621,-280 224.9621,-178 146.9621,-178"/>
</g>
<!-- INFCf_domains -->
<g id="node2" class="node">
<title>INFCf_domains</title>
<polygon fill="#efebdd" stroke="transparent" points="28.9621,-111 28.9621,-131 122.9621,-131 122.9621,-111 28.9621,-111"/>
<text text-anchor="start" x="30.4684" y="-116.4" font-family="Times,serif" font-size="14.00" fill="#000000">INFCf_domains</text>
<polygon fill="#ffffff" stroke="transparent" points="28.9621,-91 28.9621,-111 98.9621,-111 98.9621,-91 28.9621,-91"/>
<text text-anchor="start" x="30.9621" y="-96.4" font-family="Times,serif" font-size="14.00" fill="#444444">pag</text>
<polygon fill="#ffffff" stroke="transparent" points="98.9621,-91 98.9621,-111 122.9621,-111 122.9621,-91 98.9621,-91"/>
<text text-anchor="start" x="100.9621" y="-96.4" font-family="Times,serif" font-size="14.00" fill="#444444">int</text>
<polygon fill="#ffffff" stroke="transparent" points="28.9621,-71 28.9621,-91 98.9621,-91 98.9621,-71 28.9621,-71"/>
<text text-anchor="start" x="30.9621" y="-76.4" font-family="Times,serif" font-size="14.00" fill="#444444">htot.m</text>
<polygon fill="#ffffff" stroke="transparent" points="98.9621,-71 98.9621,-91 122.9621,-91 122.9621,-71 98.9621,-71"/>
<text text-anchor="start" x="100.9621" y="-76.4" font-family="Times,serif" font-size="14.00" fill="#444444">dbl</text>
<polygon fill="#ffffff" stroke="transparent" points="28.9621,-51 28.9621,-71 98.9621,-71 98.9621,-51 28.9621,-51"/>
<text text-anchor="start" x="30.9621" y="-56.4" font-family="Times,serif" font-size="14.00" fill="#444444">dbh.min</text>
<polygon fill="#ffffff" stroke="transparent" points="98.9621,-51 98.9621,-71 122.9621,-71 122.9621,-51 98.9621,-51"/>
<text text-anchor="start" x="100.9621" y="-56.4" font-family="Times,serif" font-size="14.00" fill="#444444">dbl</text>
<polygon fill="#ffffff" stroke="transparent" points="28.9621,-31 28.9621,-51 98.9621,-51 98.9621,-31 28.9621,-31"/>
<text text-anchor="start" x="30.9621" y="-36.4" font-family="Times,serif" font-size="14.00" fill="#444444">dbh.max</text>
<polygon fill="#ffffff" stroke="transparent" points="98.9621,-31 98.9621,-51 122.9621,-51 122.9621,-31 98.9621,-31"/>
<text text-anchor="start" x="100.9621" y="-36.4" font-family="Times,serif" font-size="14.00" fill="#444444">dbl</text>
<polygon fill="#ffffff" stroke="transparent" points="28.9621,-11 28.9621,-31 98.9621,-31 98.9621,-11 28.9621,-11"/>
<text text-anchor="start" x="30.9621" y="-17.4" font-family="Times,serif" text-decoration="underline" font-size="14.00" fill="#444444">pag, htot.m</text>
<polygon fill="#ffffff" stroke="transparent" points="98.9621,-11 98.9621,-31 122.9621,-31 122.9621,-11 98.9621,-11"/>
<polygon fill="none" stroke="#555555" points="27.9621,-10 27.9621,-132 123.9621,-132 123.9621,-10 27.9621,-10"/>
</g>
<!-- INFCf_domains&#45;&gt;INFCcatalog -->
<g id="edge3" class="edge">
<title>INFCf_domains:pag&#45;&gt;INFCcatalog:pag</title>
<path fill="none" stroke="#555555" d="M28.9621,-101C-52.1444,-101 54.5721,-237.6633 137.9269,-248.3402"/>
<polygon fill="#555555" stroke="#555555" points="137.7539,-251.8363 147.9621,-249 138.2133,-244.8513 137.7539,-251.8363"/>
</g>
<!-- INFCparam -->
<g id="node3" class="node">
<title>INFCparam</title>
<polygon fill="#efebdd" stroke="transparent" points="256.9621,-121 256.9621,-141 354.9621,-141 354.9621,-121 256.9621,-121"/>
<text text-anchor="start" x="272.5287" y="-126.4" font-family="Times,serif" font-size="14.00" fill="#000000">INFCparam</text>
<polygon fill="#ffffff" stroke="transparent" points="256.9621,-101 256.9621,-121 333.9621,-121 333.9621,-101 256.9621,-101"/>
<text text-anchor="start" x="258.9621" y="-106.4" font-family="Times,serif" font-size="14.00" fill="#444444">pag</text>
<polygon fill="#ffffff" stroke="transparent" points="333.9621,-101 333.9621,-121 354.9621,-121 354.9621,-101 333.9621,-101"/>
<text text-anchor="start" x="335.9621" y="-106.4" font-family="Times,serif" font-size="14.00" fill="#444444">int</text>
<polygon fill="#ffffff" stroke="transparent" points="256.9621,-81 256.9621,-101 333.9621,-101 333.9621,-81 256.9621,-81"/>
<text text-anchor="start" x="258.9621" y="-86.4" font-family="Times,serif" font-size="14.00" fill="#444444">quantity</text>
<polygon fill="#ffffff" stroke="transparent" points="333.9621,-81 333.9621,-101 354.9621,-101 354.9621,-81 333.9621,-81"/>
<text text-anchor="start" x="335.5245" y="-86.4" font-family="Times,serif" font-size="14.00" fill="#444444">chr</text>
<polygon fill="#ffffff" stroke="transparent" points="256.9621,-61 256.9621,-81 333.9621,-81 333.9621,-61 256.9621,-61"/>
<text text-anchor="start" x="258.9621" y="-66.4" font-family="Times,serif" font-size="14.00" fill="#444444">wrv</text>
<polygon fill="#ffffff" stroke="transparent" points="333.9621,-61 333.9621,-81 354.9621,-81 354.9621,-61 333.9621,-61"/>
<text text-anchor="start" x="335.5168" y="-66.4" font-family="Times,serif" font-size="14.00" fill="#444444">dbl</text>
<polygon fill="#ffffff" stroke="transparent" points="256.9621,-41 256.9621,-61 333.9621,-61 333.9621,-41 256.9621,-41"/>
<text text-anchor="start" x="258.9621" y="-46.4" font-family="Times,serif" font-size="14.00" fill="#444444">bm</text>
<polygon fill="#ffffff" stroke="transparent" points="333.9621,-41 333.9621,-61 354.9621,-61 354.9621,-41 333.9621,-41"/>
<text text-anchor="start" x="335.9039" y="-46.4" font-family="Times,serif" font-size="14.00" fill="#444444">list</text>
<polygon fill="#ffffff" stroke="transparent" points="256.9621,-21 256.9621,-41 333.9621,-41 333.9621,-21 256.9621,-21"/>
<text text-anchor="start" x="258.9621" y="-26.4" font-family="Times,serif" font-size="14.00" fill="#444444">vcm</text>
<polygon fill="#ffffff" stroke="transparent" points="333.9621,-21 333.9621,-41 354.9621,-41 354.9621,-21 333.9621,-21"/>
<text text-anchor="start" x="335.9039" y="-26.4" font-family="Times,serif" font-size="14.00" fill="#444444">list</text>
<polygon fill="#ffffff" stroke="transparent" points="256.9621,-1 256.9621,-21 333.9621,-21 333.9621,-1 256.9621,-1"/>
<text text-anchor="start" x="258.9116" y="-7.4" font-family="Times,serif" text-decoration="underline" font-size="14.00" fill="#444444">pag, quantity</text>
<polygon fill="#ffffff" stroke="transparent" points="333.9621,-1 333.9621,-21 354.9621,-21 354.9621,-1 333.9621,-1"/>
<polygon fill="none" stroke="#555555" points="255.9621,0 255.9621,-142 355.9621,-142 355.9621,0 255.9621,0"/>
</g>
<!-- INFCparam&#45;&gt;INFCcatalog -->
<g id="edge2" class="edge">
<title>INFCparam:pag&#45;&gt;INFCcatalog:pag</title>
<path fill="none" stroke="#555555" d="M256.9621,-111C240.8024,-111 250.3141,-131.5807 237.9621,-142 205.0318,-169.7776 172.1147,-142.3258 147.9621,-178 132.6207,-200.6597 120.1568,-237.412 137.6952,-246.7746"/>
<polygon fill="#555555" stroke="#555555" points="137.4476,-250.3021 147.9621,-249 138.9305,-243.461 137.4476,-250.3021"/>
</g>
<!-- Quantities -->
<g id="node5" class="node">
<title>Quantities</title>
<polygon fill="#efebdd" stroke="transparent" points="243.9621,-239 243.9621,-259 375.9621,-259 375.9621,-239 243.9621,-239"/>
<text text-anchor="start" x="281.1907" y="-244.4" font-family="Times,serif" font-size="14.00" fill="#000000">Quantities</text>
<polygon fill="#ffffff" stroke="transparent" points="243.9621,-219 243.9621,-239 354.9621,-239 354.9621,-219 243.9621,-219"/>
<text text-anchor="start" x="245.9621" y="-225.4" font-family="Times,serif" text-decoration="underline" font-size="14.00" fill="#444444">quantity</text>
<polygon fill="#ffffff" stroke="transparent" points="354.9621,-219 354.9621,-239 375.9621,-239 375.9621,-219 354.9621,-219"/>
<text text-anchor="start" x="356.5245" y="-224.4" font-family="Times,serif" font-size="14.00" fill="#444444">chr</text>
<polygon fill="#ffffff" stroke="transparent" points="243.9621,-199 243.9621,-219 354.9621,-219 354.9621,-199 243.9621,-199"/>
<text text-anchor="start" x="245.8001" y="-204.4" font-family="Times,serif" font-size="14.00" fill="#444444">quantity_definition</text>
<polygon fill="#ffffff" stroke="transparent" points="354.9621,-199 354.9621,-219 375.9621,-219 375.9621,-199 354.9621,-199"/>
<text text-anchor="start" x="356.5245" y="-204.4" font-family="Times,serif" font-size="14.00" fill="#444444">chr</text>
<polygon fill="none" stroke="#555555" points="242.9621,-198 242.9621,-260 376.9621,-260 376.9621,-198 242.9621,-198"/>
</g>
<!-- INFCparam&#45;&gt;Quantities -->
<g id="edge4" class="edge">
<title>INFCparam:quantity&#45;&gt;Quantities:quantity</title>
<path fill="none" stroke="#555555" d="M256.9621,-91C243.9071,-91 232.5775,-190.1559 238.8088,-220.3675"/>
<polygon fill="#555555" stroke="#555555" points="235.831,-222.2076 243.9621,-229 241.8415,-218.6195 235.831,-222.2076"/>
</g>
<!-- INFCspecies -->
<g id="node4" class="node">
<title>INFCspecies</title>
<polygon fill="#efebdd" stroke="transparent" points="143.9621,-91 143.9621,-111 228.9621,-111 228.9621,-91 143.9621,-91"/>
<text text-anchor="start" x="150.3071" y="-96.4" font-family="Times,serif" font-size="14.00" fill="#000000">INFCspecies</text>
<polygon fill="#ffffff" stroke="transparent" points="143.9621,-71 143.9621,-91 207.9621,-91 207.9621,-71 143.9621,-71"/>
<text text-anchor="start" x="145.6353" y="-77.4" font-family="Times,serif" text-decoration="underline" font-size="14.00" fill="#444444">EPPOcode</text>
<polygon fill="#ffffff" stroke="transparent" points="207.9621,-71 207.9621,-91 228.9621,-91 228.9621,-71 207.9621,-71"/>
<text text-anchor="start" x="209.5245" y="-76.4" font-family="Times,serif" font-size="14.00" fill="#444444">chr</text>
<polygon fill="#ffffff" stroke="transparent" points="143.9621,-51 143.9621,-71 207.9621,-71 207.9621,-51 143.9621,-51"/>
<text text-anchor="start" x="145.9621" y="-56.4" font-family="Times,serif" font-size="14.00" fill="#444444">pag</text>
<polygon fill="#ffffff" stroke="transparent" points="207.9621,-51 207.9621,-71 228.9621,-71 228.9621,-51 207.9621,-51"/>
<text text-anchor="start" x="209.9621" y="-56.4" font-family="Times,serif" font-size="14.00" fill="#444444">int</text>
<polygon fill="#ffffff" stroke="transparent" points="143.9621,-31 143.9621,-51 207.9621,-51 207.9621,-31 143.9621,-31"/>
<text text-anchor="start" x="145.9621" y="-36.4" font-family="Times,serif" font-size="14.00" fill="#444444">PrefName</text>
<polygon fill="#ffffff" stroke="transparent" points="207.9621,-31 207.9621,-51 228.9621,-51 228.9621,-31 207.9621,-31"/>
<text text-anchor="start" x="209.5245" y="-36.4" font-family="Times,serif" font-size="14.00" fill="#444444">chr</text>
<polygon fill="none" stroke="#555555" points="142.4621,-30 142.4621,-112 229.4621,-112 229.4621,-30 142.4621,-30"/>
</g>
<!-- INFCspecies&#45;&gt;INFCcatalog -->
<g id="edge1" class="edge">
<title>INFCspecies:pag&#45;&gt;INFCcatalog:pag</title>
<path fill="none" stroke="#555555" d="M143.9621,-61C134.9231,-61 136.6995,-201.7425 144.1093,-239.6771"/>
<polygon fill="#555555" stroke="#555555" points="140.9081,-241.0948 147.9621,-249 147.3774,-238.4213 140.9081,-241.0948"/>
</g>
</g>
</svg>
